<svg width="220" height="50" viewBox="0 0 220 50" fill="none" xmlns="http://www.w3.org/2000/svg">
<path d="M60.8847 11.3967C59.6811 11.3967 58.5317 11.6244 57.4473 12.0798C56.3846 12.5352 55.4521 13.1642 54.6496 13.9774C53.8364 14.7907 53.2074 15.7233 52.752 16.7751C52.2966 17.8812 52.0689 19.0197 52.0689 20.2125C52.0689 21.4053 52.2966 22.5439 52.752 23.6391C53.2074 24.6801 53.8364 25.6235 54.6496 26.4368C55.4629 27.2501 56.3955 27.879 57.4473 28.3344C58.5317 28.7898 59.6811 29.0176 60.8847 29.0176C62.0884 29.0176 63.2161 28.7898 64.3113 28.3344C65.3523 27.879 66.2957 27.2501 67.109 26.4368C67.9223 25.6127 68.5403 24.6801 68.9849 23.6391C69.4512 22.5331 69.6898 21.3945 69.6898 20.2017C69.6898 19.0089 69.4512 17.8703 68.9849 16.7643C68.5403 15.7124 67.9223 14.7799 67.1198 13.9774C66.2957 13.1642 65.3632 12.5352 64.3222 12.0798C63.2161 11.6244 62.0775 11.3967 60.8847 11.3967ZM60.8847 4.68445C62.9884 4.68445 64.9945 5.08566 66.9246 5.89894C68.7789 6.69052 70.4271 7.79657 71.8693 9.22793C73.2899 10.6701 74.3959 12.3184 75.1875 14.1726C75.9249 15.9401 76.3261 17.7727 76.3911 19.692V19.9523V20.2125V32.3791C76.3911 34.2334 74.8839 35.7406 73.0296 35.7406H72.4007C70.8934 35.7406 69.6681 34.5153 69.6681 33.008L69.6355 33.0297C68.6921 33.6803 67.6945 34.2117 66.6319 34.6346L66.3608 34.743L66.0897 34.8406C64.4089 35.437 62.6631 35.7406 60.8522 35.7406C58.7485 35.7406 56.7425 35.3394 54.8123 34.5261C52.958 33.7345 51.3098 32.6285 49.8676 31.1971C48.4471 29.7549 47.341 28.1067 46.5495 26.2524C45.7362 24.3331 45.335 22.3162 45.335 20.2125C45.335 18.1089 45.7362 16.1028 46.5495 14.1726C47.341 12.3184 48.4471 10.6701 49.8784 9.22793C51.3206 7.80742 52.9689 6.70136 54.8231 5.90978C56.7425 5.09651 58.7594 4.69529 60.863 4.69529L60.8847 4.68445Z" fill="#EB6573"/>
<path d="M90.8249 0C88.9707 0 87.4634 1.50727 87.4634 3.36153V32.3791C87.4634 34.2334 88.9707 35.7406 90.8249 35.7406C92.6792 35.7406 94.1864 34.2334 94.1864 32.3791V3.36153C94.1864 1.50727 92.6792 0 90.8249 0Z" fill="#EB6573"/>
<path d="M148.859 0C150.714 0 152.221 1.50727 152.221 3.36153V7.07005H154.119C155.919 7.07005 157.393 8.49057 157.469 10.2798V10.4316C157.469 12.2858 155.973 13.7931 154.119 13.7931H152.221V31.4465C152.221 33.2466 150.8 34.7213 149.011 34.7972H148.859C147.005 34.7972 145.498 33.3008 145.498 31.4465V13.7823H143.644C141.844 13.7823 140.369 12.3617 140.293 10.5725V10.4207C140.293 8.56647 141.789 7.05921 143.644 7.05921H145.498V3.35068C145.498 1.55064 146.918 0.0759054 148.708 0H148.859Z" fill="#EB6573"/>
<path d="M172.206 0C174.06 0 175.567 1.50727 175.567 3.36153V7.07005H177.465C179.265 7.07005 180.74 8.49057 180.815 10.2798V10.4316C180.815 12.2858 179.319 13.7931 177.465 13.7931H175.567V31.4465C175.567 33.2466 174.147 34.7213 172.357 34.7972H172.206C170.351 34.7972 168.844 33.3008 168.844 31.4465V13.7823H166.99C165.19 13.7823 163.715 12.3617 163.639 10.5725V10.4207C163.639 8.56647 165.136 7.05921 166.99 7.05921H168.844V3.35068C168.844 1.55064 170.265 0.0759054 172.054 0H172.206Z" fill="#EB6573"/>
<path d="M119.842 11.3967C118.064 11.3967 116.437 11.8846 114.952 12.8714C113.781 13.6521 112.859 14.6389 112.176 15.8317L112.132 15.9076H127.541L127.509 15.8534C126.858 14.6931 125.98 13.7389 124.874 12.969L124.722 12.8605C123.236 11.8738 121.61 11.3858 119.831 11.3858L119.842 11.3967ZM119.842 4.68445C121.621 4.68445 123.345 4.97723 125.004 5.56278C126.609 6.12665 128.072 6.93992 129.417 7.99176C130.74 9.04359 131.879 10.2798 132.811 11.7003C133.744 13.1208 134.438 14.6714 134.871 16.3305C135.197 17.5884 135.359 18.8896 135.359 20.2125C135.359 20.6463 135.338 21.08 135.305 21.5138L135.273 21.8391L135.186 22.6415H111.362L111.373 22.6957C111.829 24.2897 112.675 25.6344 113.932 26.7512L114.073 26.8705L114.214 26.9898C115.852 28.3453 117.717 29.0176 119.831 29.0176C121.577 29.0176 123.486 28.7139 124.635 27.6079C124.863 27.391 125.101 27.1416 125.362 26.8705C126.641 25.5368 128.669 25.244 130.263 26.1765C131.683 27.0115 132.171 28.8332 131.336 30.2646C131.25 30.4055 131.152 30.5465 131.044 30.6766C130.122 31.7827 129.2 32.6285 128.268 33.2357C125.709 34.9057 122.9 35.7298 119.82 35.7298C117.717 35.7298 115.711 35.3286 113.781 34.5153C111.926 33.7237 110.278 32.6177 108.836 31.1863C107.415 29.7441 106.309 28.0959 105.518 26.2416C104.704 24.3223 104.303 22.3054 104.303 20.2017C104.303 18.098 104.704 16.092 105.518 14.1618C106.309 12.3075 107.415 10.6593 108.847 9.21709C110.289 7.79657 111.937 6.69052 113.791 5.89894C115.711 5.08566 117.728 4.68445 119.831 4.68445H119.842Z" fill="#EB6573"/>
<path d="M202.514 11.3967C200.736 11.3967 199.109 11.8846 197.624 12.8714C196.452 13.6521 195.531 14.6389 194.848 15.8317L194.804 15.9076H210.213L210.18 15.8534C209.53 14.6931 208.652 13.7389 207.545 12.969L207.394 12.8605C205.908 11.8738 204.282 11.3858 202.503 11.3858L202.514 11.3967ZM202.514 4.68445C204.292 4.68445 206.017 4.97723 207.676 5.56278C209.28 6.12665 210.744 6.93992 212.089 7.99176C213.412 9.04359 214.55 10.2798 215.483 11.7003C216.416 13.1208 217.11 14.6714 217.543 16.3305C217.869 17.5884 218.031 18.8896 218.031 20.2125C218.031 20.6463 218.01 21.08 217.977 21.5138L217.945 21.8391L217.858 22.6415H194.034L194.045 22.6957C194.501 24.2897 195.346 25.6344 196.604 26.7512L196.745 26.8705L196.886 26.9898C198.524 28.3453 200.389 29.0176 202.503 29.0176C204.249 29.0176 206.157 28.7139 207.307 27.6079C207.535 27.391 207.773 27.1416 208.033 26.8705C209.313 25.5368 211.341 25.244 212.935 26.1765C214.355 27.0115 214.843 28.8332 214.008 30.2646C213.922 30.4055 213.824 30.5465 213.716 30.6766C212.794 31.7827 211.872 32.6285 210.94 33.2357C208.38 34.9057 205.572 35.7298 202.492 35.7298C200.389 35.7298 198.383 35.3286 196.452 34.5153C194.598 33.7237 192.95 32.6177 191.508 31.1863C190.087 29.7441 188.981 28.0959 188.19 26.2416C187.376 24.3223 186.975 22.3054 186.975 20.2017C186.975 18.098 187.376 16.092 188.19 14.1618C188.981 12.3075 190.087 10.6593 191.519 9.21709C192.961 7.79657 194.609 6.69052 196.463 5.89894C198.383 5.08566 200.4 4.68445 202.503 4.68445H202.514Z" fill="#EB6573"/>
<path fill-rule="evenodd" clip-rule="evenodd" d="M7.87012 46.4324V42.8866H14.9835V46.4324C14.9835 48.406 13.4112 50 11.4377 50C9.46413 50 7.87012 48.406 7.87012 46.4324Z" fill="#7664AA"/>
<path d="M23.4199 4.61935C14.8426 4.61935 7.87012 11.5918 7.87012 20.1691V42.8865H14.9835V35.7189H23.4199C31.9972 35.7189 38.9697 28.7464 38.9697 20.1691C38.9697 11.5918 31.9972 4.61935 23.4199 4.61935ZM23.4199 28.6055H14.9835V20.1691C14.9835 15.5172 18.768 11.7328 23.4199 11.7328C28.0718 11.7328 31.8562 15.5172 31.8562 20.1691C31.8562 24.821 28.0718 28.6055 23.4199 28.6055Z" fill="#EB6573"/>
<path fill-rule="evenodd" clip-rule="evenodd" d="M3.86931 28.6055H14.984V35.719H3.86931C1.89577 35.719 0.301758 34.1466 0.301758 32.1731C0.301758 30.1996 1.89577 28.6055 3.86931 28.6055Z" fill="#EEE128"/>
</svg>
