<svg width="56" height="57" viewBox="0 0 56 57" fill="none" xmlns="http://www.w3.org/2000/svg">
<g clip-path="url(#clip0_965_2793)">
<path d="M39.6668 9.53326H46.6668M46.6668 9.53326V16.5333M46.6668 9.53326L35.0002 21.1999M13.4816 9.53326C11.1907 9.53326 9.3335 11.3905 9.3335 13.6814V15.7555C9.3335 32.9377 23.2624 46.8666 40.4446 46.8666H42.5187C44.8096 46.8666 46.6668 45.0094 46.6668 42.7184V35.9171C46.6668 35.0243 46.0956 34.2317 45.2486 33.9494L35.9289 30.8428C34.9497 30.5164 33.8795 30.9597 33.4179 31.8829L31.0771 36.5647C26.0065 34.2785 21.9216 30.1936 19.6354 25.123L24.3172 22.7822C25.2404 22.3206 25.6836 21.2504 25.3572 20.2712L22.2507 10.9515C21.9684 10.1045 21.1758 9.53326 20.283 9.53326H13.4816Z" stroke="#767676" stroke-width="3.11111" stroke-linecap="round" stroke-linejoin="round"/>
</g>
<defs>
<clipPath id="clip0_965_2793">
<rect width="56" height="56" fill="white" transform="translate(0 0.199951)"/>
</clipPath>
</defs>
</svg>
