<svg width="56" height="57" viewBox="0 0 56 57" fill="none" xmlns="http://www.w3.org/2000/svg">
<g clip-path="url(#clip0_965_2799)">
<path d="M44.3333 7.3999L28 23.7332L11.6667 7.3999M11.6667 7.3999V16.7332M11.6667 7.3999H21M8.33697 39.2603C12.9549 35.2324 18.6667 33.0666 28 33.0666C37.3333 33.0666 43.0451 35.2324 47.663 39.2603C48.5608 40.0433 49 41.2087 49 42.4V44.7317C49 47.6765 46.3058 49.8852 43.4181 49.3077L41.0848 48.841C38.9035 48.4048 37.3333 46.9578 37.3333 44.7333C37.3333 42.4 35 40.0666 28 40.0666C21 40.0666 18.6667 42.4 18.6667 44.7333C18.6667 46.9578 17.0965 48.4048 14.9152 48.841L12.5819 49.3077C9.69418 49.8852 7 47.6765 7 44.7317V42.4C7 41.2087 7.43924 40.0433 8.33697 39.2603Z" stroke="#767676" stroke-width="3.11" stroke-linecap="round" stroke-linejoin="round"/>
</g>
<defs>
<clipPath id="clip0_965_2799">
<rect width="56" height="56" fill="white" transform="translate(0 0.399902)"/>
</clipPath>
</defs>
</svg>
