<svg width="56" height="56" viewBox="0 0 56 56" fill="none" xmlns="http://www.w3.org/2000/svg">
<path d="M37.3334 18.6666L42.0001 14M42.0001 14L46.6667 9.33331M42.0001 14L37.3334 9.33331M42.0001 14L46.6667 18.6666M13.4816 9.33331C11.1907 9.33331 9.3335 11.1905 9.3335 13.4815V15.5555C9.3335 32.7377 23.2624 46.6666 40.4446 46.6666H42.5187C44.8096 46.6666 46.6668 44.8095 46.6668 42.5185V35.7171C46.6668 34.8244 46.0956 34.0318 45.2486 33.7495L35.9289 30.6429C34.9497 30.3165 33.8795 30.7598 33.4179 31.683L31.0771 36.3647C26.0065 34.0786 21.9216 29.9936 19.6354 24.9231L24.3172 22.5822C25.2404 22.1206 25.6836 21.0504 25.3572 20.0712L22.2507 10.7515C21.9684 9.90458 21.1758 9.33331 20.283 9.33331H13.4816Z" stroke="#767676" stroke-width="3.11111" stroke-linecap="round" stroke-linejoin="round"/>
</svg>
