<svg width="56" height="57" viewBox="0 0 56 57" fill="none" xmlns="http://www.w3.org/2000/svg">
<path d="M14 21.8C10.134 21.8 7 24.934 7 28.8C7 32.666 10.134 35.8 14 35.8V21.8ZM14 21.8C14 14.068 20.268 7.80002 28 7.80002C35.732 7.80002 42 14.068 42 21.8M42 21.8C45.866 21.8 49 24.934 49 28.8C49 32.666 45.866 35.8 42 35.8V21.8ZM42 21.8V40.4667C42 44.3327 38.866 47.4667 35 47.4667M35 47.4667C35 48.7553 33.9553 49.8 32.6667 49.8C31.378 49.8 30.3333 48.7553 30.3333 47.4667C30.3333 46.178 31.378 45.1334 32.6667 45.1334C33.9553 45.1334 35 46.178 35 47.4667Z" stroke="#767676" stroke-width="3.11111" stroke-linejoin="round"/>
</svg>
