<svg width="56" height="57" viewBox="0 0 56 57" fill="none" xmlns="http://www.w3.org/2000/svg">
<g clip-path="url(#clip0_965_2775)">
<path d="M46.6668 9.93333L35.0002 21.6M35.0002 21.6V14.6M35.0002 21.6H42.0002M13.4816 9.93333C11.1907 9.93333 9.3335 11.7905 9.3335 14.0815V16.1556C9.3335 33.3377 23.2624 47.2667 40.4446 47.2667H42.5187C44.8096 47.2667 46.6668 45.4095 46.6668 43.1185V36.3171C46.6668 35.4244 46.0956 34.6318 45.2486 34.3495L35.9289 31.2429C34.9497 30.9165 33.8795 31.3598 33.4179 32.283L31.0771 36.9647C26.0065 34.6786 21.9216 30.5936 19.6354 25.5231L24.3172 23.1822C25.2404 22.7206 25.6836 21.6504 25.3572 20.6713L22.2507 11.3515C21.9684 10.5046 21.1758 9.93333 20.283 9.93333H13.4816Z" stroke="#767676" stroke-width="3.11111" stroke-linecap="round" stroke-linejoin="round"/>
</g>
<defs>
<clipPath id="clip0_965_2775">
<rect width="56" height="56" fill="white" transform="translate(0 0.600006)"/>
</clipPath>
</defs>
</svg>
