<svg width="350" height="362" viewBox="0 0 350 362" fill="none" xmlns="http://www.w3.org/2000/svg">
<g filter="url(#filter0_iii_841_4205)">
<circle cx="175" cy="181" r="175" fill="#FDD66D"/>
</g>
<g filter="url(#filter1_f_841_4205)">
<path fill-rule="evenodd" clip-rule="evenodd" d="M343.934 135.158C312.849 73.3825 248.874 31 175.001 31C101.124 31 37.1463 73.3876 6.0625 135.169C26.2034 60.7486 94.2081 6 175 6C255.788 6 323.79 60.7432 343.934 135.158Z" fill="#FCCB45" fill-opacity="0.6"/>
</g>
<g filter="url(#filter2_f_841_4205)">
<path fill-rule="evenodd" clip-rule="evenodd" d="M315.212 285.734C280.627 323.974 230.618 348 174.998 348C119.392 348 69.395 323.987 34.811 285.765C66.7273 328.404 117.641 356 175 356C232.373 356 283.298 328.391 315.212 285.734Z" fill="#FCCB45" fill-opacity="0.6"/>
</g>
<circle cx="45" cy="232" r="30" fill="#FF926A"/>
<circle cx="305" cy="232" r="30" fill="#FF926A"/>
<g clip-path="url(#clip0_841_4205)">
<path d="M160 179C160 211.033 134.033 237 102 237C69.9675 237 44 211.033 44 179C44 150.967 69.9675 133 102 133C134.033 133 160 150.967 160 179Z" fill="#FFFFFD"/>
<path d="M74 193C74 212.33 89.67 228 109 228C128.33 228 144 212.33 144 193C144 173.67 128.33 163 109 163C89.67 163 74 173.67 74 193Z" fill="#0E297F"/>
</g>
<g clip-path="url(#clip1_841_4205)">
<path d="M190 179C190 211.033 215.967 237 248 237C280.033 237 306 211.033 306 179C306 150.967 280.033 133 248 133C215.967 133 190 150.967 190 179Z" fill="#FFFFFD"/>
<path d="M206 193C206 212.33 221.67 228 241 228C260.329 228 276 212.33 276 193C276 173.67 260.329 163 241 163C221.67 163 206 173.67 206 193Z" fill="#0E297F"/>
</g>
<path d="M320.266 265.106C320.266 284.378 305.596 300 287.5 300C269.404 300 254.734 284.378 254.734 265.106C254.734 245.835 272.808 220 287.5 220C302.192 220 320.266 245.835 320.266 265.106Z" fill="#5B91CD"/>
<path d="M87.0747 253.83C87.0747 268.283 76.0724 280 62.5003 280C48.9281 280 37.9258 268.283 37.9258 253.83C37.9258 239.376 51.4813 220 62.5003 220C73.5192 220 87.0747 239.376 87.0747 253.83Z" fill="#5B91CD"/>
<path d="M60 115.785C67.2295 117.696 75.6446 117.836 84.8113 112.614C93.9779 107.393 98.0629 100.133 100 93" stroke="#4D4D4D" stroke-width="20" stroke-linecap="round"/>
<path d="M290 115.785C282.77 117.696 274.355 117.836 265.189 112.614C256.022 107.393 251.937 100.133 250 93" stroke="#4D4D4D" stroke-width="20" stroke-linecap="round"/>
<defs>
<filter id="filter0_iii_841_4205" x="-2" y="6" width="354" height="350" filterUnits="userSpaceOnUse" color-interpolation-filters="sRGB">
<feFlood flood-opacity="0" result="BackgroundImageFix"/>
<feBlend mode="normal" in="SourceGraphic" in2="BackgroundImageFix" result="shape"/>
<feColorMatrix in="SourceAlpha" type="matrix" values="0 0 0 0 0 0 0 0 0 0 0 0 0 0 0 0 0 0 127 0" result="hardAlpha"/>
<feMorphology radius="2" operator="erode" in="SourceAlpha" result="effect1_innerShadow_841_4205"/>
<feOffset dx="-2"/>
<feGaussianBlur stdDeviation="6"/>
<feComposite in2="hardAlpha" operator="arithmetic" k2="-1" k3="1"/>
<feColorMatrix type="matrix" values="0 0 0 0 0 0 0 0 0 0 0 0 0 0 0 0 0 0 0.02 0"/>
<feBlend mode="normal" in2="shape" result="effect1_innerShadow_841_4205"/>
<feColorMatrix in="SourceAlpha" type="matrix" values="0 0 0 0 0 0 0 0 0 0 0 0 0 0 0 0 0 0 127 0" result="hardAlpha"/>
<feMorphology radius="2" operator="erode" in="SourceAlpha" result="effect2_innerShadow_841_4205"/>
<feOffset dx="2"/>
<feGaussianBlur stdDeviation="6"/>
<feComposite in2="hardAlpha" operator="arithmetic" k2="-1" k3="1"/>
<feColorMatrix type="matrix" values="0 0 0 0 0 0 0 0 0 0 0 0 0 0 0 0 0 0 0.02 0"/>
<feBlend mode="normal" in2="effect1_innerShadow_841_4205" result="effect2_innerShadow_841_4205"/>
<feColorMatrix in="SourceAlpha" type="matrix" values="0 0 0 0 0 0 0 0 0 0 0 0 0 0 0 0 0 0 127 0" result="hardAlpha"/>
<feOffset dy="2"/>
<feComposite in2="hardAlpha" operator="arithmetic" k2="-1" k3="1"/>
<feColorMatrix type="matrix" values="0 0 0 0 0.998649 0 0 0 0 0.972297 0 0 0 0 0.901351 0 0 0 0.4 0"/>
<feBlend mode="normal" in2="effect2_innerShadow_841_4205" result="effect3_innerShadow_841_4205"/>
</filter>
<filter id="filter1_f_841_4205" x="0.0625" y="0" width="349.872" height="141.169" filterUnits="userSpaceOnUse" color-interpolation-filters="sRGB">
<feFlood flood-opacity="0" result="BackgroundImageFix"/>
<feBlend mode="normal" in="SourceGraphic" in2="BackgroundImageFix" result="shape"/>
<feGaussianBlur stdDeviation="3" result="effect1_foregroundBlur_841_4205"/>
</filter>
<filter id="filter2_f_841_4205" x="28.811" y="279.734" width="292.401" height="82.2661" filterUnits="userSpaceOnUse" color-interpolation-filters="sRGB">
<feFlood flood-opacity="0" result="BackgroundImageFix"/>
<feBlend mode="normal" in="SourceGraphic" in2="BackgroundImageFix" result="shape"/>
<feGaussianBlur stdDeviation="3" result="effect1_foregroundBlur_841_4205"/>
</filter>
<clipPath id="clip0_841_4205">
<rect x="44" y="121" width="116" height="116" rx="58" fill="white"/>
</clipPath>
<clipPath id="clip1_841_4205">
<rect x="190" y="121" width="116" height="116" rx="58" fill="white"/>
</clipPath>
</defs>
</svg>
